<svg id="Layer_1" data-name="Layer 1" xmlns="http://www.w3.org/2000/svg" xmlns:xlink="http://www.w3.org/1999/xlink" viewBox="0 0 1920 1080"><defs><style>.cls-1{fill:#f4f7fc;}.cls-2{clip-path:url(#clip-path);}.cls-3{fill:#fc8100;}.cls-4{clip-path:url(#clip-path-2);}.cls-5{fill:#ffb931;}.cls-6{fill:#186864;}</style><clipPath id="clip-path"><rect class="cls-1" x="-1942.55" y="-4.6" width="1925.11" height="1084.6"/></clipPath><clipPath id="clip-path-2"><rect class="cls-1" x="-2.55" y="-2.3" width="1925.11" height="1084.6"/></clipPath></defs><rect class="cls-1" x="-1942.55" y="-4.6" width="1925.11" height="1084.6"/><g class="cls-2"><path class="cls-3" d="M-630.72,1155.57S-502,1092.26-512.26,920.68-359.06,618.38-199.74,602s239-159.32,239-159.32l-4.08,737.37Z"/></g><rect class="cls-1" x="-2.55" y="-2.3" width="1925.11" height="1084.6"/><g class="cls-4"><path class="cls-3" d="M1309.28,1157.87S1438,1094.55,1427.74,923s153.2-302.3,312.52-318.64,239-159.32,239-159.32l-4.08,737.36Z"/><path class="cls-5" d="M-214.47-73.79s-65.36,547.41,106.21,635.24,461.62,110.29,578.05-12.26,24.51-308.42,149.1-418.72S917.11-67.66,917.11-67.66Z"/><path class="cls-6" d="M-32.19,809.77s327.83-9.2,334,159.32,6.12,229.78,6.12,229.78L-62.83,1128.4Z"/></g></svg>