<svg xmlns="http://www.w3.org/2000/svg" viewBox="0 0 123.9 51.67"><defs><style>.cls-1{fill:#fff;}</style></defs><g id="Layer_2" data-name="Layer 2"><g id="Layer_1-2" data-name="Layer 1"><path class="cls-1" d="M7.27,39.34a21.07,21.07,0,0,0,8.15,1.45q6.85,0,10.88-3.1a10.13,10.13,0,0,0,4-8.46,8.76,8.76,0,0,0-1.89-5.84A12.9,12.9,0,0,0,24.17,20a66.58,66.58,0,0,0-6.49-2.62Q14,16.06,12.19,15.3a8.06,8.06,0,0,1-2.68-1.74,3.38,3.38,0,0,1-.9-2.39A3.69,3.69,0,0,1,10.15,8a7.07,7.07,0,0,1,4.28-1.14,8.28,8.28,0,0,1,5.49,1.68,5.14,5.14,0,0,1,2,4.08v.45a.67.67,0,0,0,.21.49.68.68,0,0,0,.49.2h6.69a.68.68,0,0,0,.49-.2A.67.67,0,0,0,30,13.1v-.85a10.83,10.83,0,0,0-1.95-6.41,12.76,12.76,0,0,0-5.41-4.3A19.17,19.17,0,0,0,14.78,0,18.66,18.66,0,0,0,7.39,1.37a11.45,11.45,0,0,0-5,3.93,10.14,10.14,0,0,0-1.8,6,9.26,9.26,0,0,0,1.83,5.84A13.25,13.25,0,0,0,7,20.85a52.42,52.42,0,0,0,6.6,2.68c2.33.83,4,1.49,5.1,2a8.48,8.48,0,0,1,2.53,1.66,3.13,3.13,0,0,1,.93,2.3,4,4,0,0,1-1.52,3.17A7,7,0,0,1,16,33.9a9.64,9.64,0,0,1-5.82-1.57A4.62,4.62,0,0,1,8,28.48v-.85a.63.63,0,0,0-.21-.48.64.64,0,0,0-.49-.2H.7a.66.66,0,0,0-.5.2.66.66,0,0,0-.2.48v1.25a10.71,10.71,0,0,0,1.89,6.3A12,12,0,0,0,7.27,39.34Z"/><path class="cls-1" d="M83.21,45.06H64a1.15,1.15,0,0,1-1-.64l-2.29-4.76-1.53-3.19L56.07,30,52,21.47l4.49-5.75a1.08,1.08,0,0,0,.12-1.12L54.15,9.54a1.12,1.12,0,0,0-1.84-.25l-4,4.54h0L43.73,19V1.14a.7.7,0,0,0-.2-.49.72.72,0,0,0-.5-.2H36.22a.68.68,0,0,0-.49.2.66.66,0,0,0-.2.49v39a.62.62,0,0,0,.2.48.68.68,0,0,0,.49.2H43a.72.72,0,0,0,.5-.2.66.66,0,0,0,.2-.48V29.19L46,26.44a.16.16,0,0,1,.2-.09.26.26,0,0,1,.2.14l4.77,11L56.9,51.26a.69.69,0,0,0,.64.41H83.21a.61.61,0,0,0,.62-.6v-5.4A.61.61,0,0,0,83.21,45.06Z"/><path class="cls-1" d="M85.22,8.39A.66.66,0,0,0,84.86,8a.7.7,0,0,0-.53,0l-6.44,2.16a.65.65,0,0,0-.4.34.6.6,0,0,0,0,.52l5.93,17a5,5,0,0,1-.48,3.38,4.54,4.54,0,0,1-2.69,2.14,4.38,4.38,0,0,1-3.75-.25,5.5,5.5,0,0,1-2.41-3.1L68.43,14a.64.64,0,0,0-.35-.39.68.68,0,0,0-.54,0l-6.38,2.14a.66.66,0,0,0-.4.35.63.63,0,0,0,0,.52l6.3,18a9.63,9.63,0,0,0,5.12,6,10.38,10.38,0,0,0,7.75.18q4.62-1.56,5.81-5.2c0-.13.09-.2.17-.21s.14,0,.18.15l.64,1.84a.64.64,0,0,0,.35.39.7.7,0,0,0,.53,0L94,35.67a.66.66,0,0,0,.41-.34.7.7,0,0,0,0-.53Z"/><rect class="cls-1" y="45.06" width="43.73" height="6.61" rx="0.5"/><path class="cls-1" d="M123.17,5.06H116a1.09,1.09,0,0,0-1.06.8l-1.29,4.86h0l-.22.85-1,3.79L108.57,30c0,.12-.1.18-.17.18s-.14-.06-.18-.18l-4.88-18.45a.77.77,0,0,0-.82-.57H95.25c-.43,0-.64.17-.64.51a.58.58,0,0,0,.06.28l9.54,28.38a.64.64,0,0,1,0,.34,6.88,6.88,0,0,1-1.31,2.85,4.26,4.26,0,0,1-2.27,1.31,18.62,18.62,0,0,1-3.87.39.68.68,0,0,0-.49.2.67.67,0,0,0-.21.49V51a1,1,0,0,0,.12.49.33.33,0,0,0,.29.19h.41a24,24,0,0,0,7.73-1,8.58,8.58,0,0,0,4.25-3.05,24.7,24.7,0,0,0,3-6.23L121,14.32l.86-2.53.36-1.07h0L123.53,7l.33-1A.71.71,0,0,0,123.17,5.06Z"/></g></g></svg>